<svg id="_x33_0" enable-background="new 0 0 64 64" height="512" viewBox="0 0 64 64" width="512" xmlns="http://www.w3.org/2000/svg"><path d="m36 3v2c0 .55-.45 1-1 1h-1-4-1c-.55 0-1-.45-1-1v-2c0-.55.45-1 1-1h6c.55 0 1 .45 1 1z" fill="#aab2bd"/><path d="m33.03 14.04c-.34-.03-.68-.04-1.03-.04s-.69.01-1.03.04c-.32.02-.64.06-.95.1l-.02-.14v-8h4v8l-.02.14c-.31-.04-.63-.08-.95-.1z" fill="#ccd1d9"/><path d="m18 46-5 10-5-5z" fill="#ffc729"/><path d="m32 51 4 11h-8z" fill="#ffc729"/><circle cx="32" cy="28" fill="#ac92ec" r="14"/><path d="m56 51-5 5-5-10z" fill="#ffc729"/><path d="m32 43c8.271 0 15-6.729 15-15 0-7.244-5.161-13.304-12-14.698v-6.302c1.103 0 2-.897 2-2v-2c0-1.103-.897-2-2-2h-6c-1.103 0-2 .897-2 2v2c0 1.103.897 2 2 2v6.302c-6.839 1.394-12 7.454-12 14.698 0 8.271 6.729 15 15 15zm-13-15c0-.338.025-.669.051-1h5.986c-.016.332-.037.661-.037 1s.021.668.037 1h-5.986c-.026-.331-.051-.662-.051-1zm12.473-12.973c.176-.007.349-.027.527-.027s.351.02.527.027c.286.388.752 1.058 1.286 1.973h-3.626c.534-.915 1-1.585 1.286-1.973zm-3.587 1.973h-2.782c1.127-.709 2.367-1.246 3.69-1.583-.286.46-.593.989-.908 1.583zm7.32-1.583c1.323.337 2.563.875 3.69 1.583h-2.782c-.315-.594-.622-1.123-.908-1.583zm-.347 3.583c.289.615.571 1.284.833 2h-7.385c.262-.716.544-1.385.833-2zm1.465 4c.17.642.313 1.309.425 2h-9.497c.111-.691.255-1.358.425-2zm8.313 2h-5.854c-.1-.692-.238-1.354-.392-2h5.606c.268.641.476 1.312.64 2zm.363 3c0 .338-.025.669-.051 1h-5.986c.016-.332.037-.661.037-1s-.021-.668-.037-1h5.986c.026.331.051.662.051 1zm-17.324 5c-.17-.642-.313-1.309-.425-2h9.497c-.111.691-.255 1.358-.425 2zm8.017 2c-.262.716-.544 1.385-.833 2h-5.719c-.289-.615-.571-1.284-.833-2zm-8.693-7c0-.338.02-.669.038-1h9.924c.018.331.038.662.038 1s-.02.669-.038 1h-9.924c-.018-.331-.038-.662-.038-1zm11.783 3h5.854c-.163.688-.371 1.359-.64 2h-5.606c.153-.646.292-1.308.392-2zm-13.566-6h-5.854c.163-.688.371-1.359.64-2h5.606c-.153.646-.292 1.308-.392 2zm0 6c.1.692.238 1.354.392 2h-5.606c-.268-.641-.476-1.312-.64-2zm.951 4c.235.71.496 1.372.764 2h-4.291c-.589-.612-1.117-1.282-1.578-2zm1.718 4c.315.594.622 1.123.908 1.583-1.323-.337-2.563-.875-3.69-1.583zm3.587 1.973c-.286-.388-.752-1.058-1.286-1.973h3.626c-.534.915-1 1.585-1.286 1.973-.176.007-.349.027-.527.027s-.351-.02-.527-.027zm4.641-1.973h2.782c-1.127.709-2.367 1.246-3.69 1.583.286-.46.593-.989.908-1.583zm5.245-2h-4.291c.268-.628.529-1.29.764-2h5.105c-.461.718-.989 1.388-1.578 2zm1.578-16h-5.105c-.235-.71-.496-1.372-.764-2h4.291c.589.612 1.117 1.282 1.578 2zm-13.937-18h6v2h-6zm2 4h2v6.051c-.332-.022-.662-.051-1-.051s-.668.029-1 .051zm-8.359 12h4.291c-.268.628-.529 1.29-.764 2h-5.105c.461-.718.989-1.388 1.578-2z"/><path d="m26.572 63h10.855l-5.427-14.926zm2.856-2 2.572-7.074 2.572 7.074z"/><path d="m43.764 43.764 6.962 13.924 6.963-6.962zm4.472 4.472 6.075 3.038-3.037 3.038z"/><path d="m13.274 57.688 6.962-13.924-13.924 6.962zm-.548-3.376-3.037-3.038 6.075-3.038z"/><path d="m39.5 46.692h2v7.616h-2z" transform="matrix(.919 -.394 .394 .919 -16.618 20.037)"/><path d="m19.692 49.5h7.616v2h-7.616z" transform="matrix(.394 -.919 .919 .394 -32.174 52.196)"/><path d="m8.692 38.5h7.616v1.999h-7.616z" transform="matrix(.919 -.394 .394 .919 -14.541 8.111)"/><path d="m50.5 35.692h1.999v7.616h-1.999z" transform="matrix(.394 -.919 .919 .394 -5.093 71.276)"/></svg>